Coordinates
version=1
nRows=65
nColumns=12
inDegrees=yes

Units are S.I. units (second, meters, Newtons, ...)
Angles are in degrees

endheader
time	SC_y	SC_z	SC_x	AC_y	AC_z	AC_x	GH_y	GH_z	GH_yy	EL_x	PS_y
       0.0              -16.45          21.16          79.37          51.24         -19.74         -11.42         -130.2         -14.61          126.9          30.06          63.32
   0.02606              -16.45          21.16          79.36          51.23         -19.74         -11.42         -130.1         -14.61          126.9          30.07          63.32
   0.05212              -16.45          21.17          79.35          51.23         -19.74         -11.42         -130.1         -14.61          126.9          30.07          63.31
   0.07818              -16.46          21.17          79.33          51.23         -19.73         -11.41         -130.1          -14.6          126.9          30.08          63.31
    0.1042              -16.46          21.17          79.32          51.22         -19.73         -11.41         -130.0          -14.6          126.9          30.08          63.31
    0.1303              -16.47          21.18          79.31          51.22         -19.73          -11.4         -130.0          -14.6          126.9          30.09          63.31
    0.1564              -16.47          21.18          79.29          51.22         -19.73          -11.4         -130.0          -14.6          126.9           30.1          63.31
    0.1824              -16.48          21.18          79.28          51.21         -19.73         -11.39         -129.9          -14.6          126.9          30.11          63.31
    0.2085              -16.48          21.19          79.26          51.21         -19.73         -11.39         -129.9          -14.6          126.9          30.12          63.31
    0.2345              -16.49          21.19          79.24           51.2         -19.72         -11.38         -129.9          -14.6          126.9          30.13          63.31
    0.2606               -16.5           21.2          79.22           51.2         -19.72         -11.37         -129.8          -14.6          126.9          30.14          63.31
    0.2867               -16.5           21.2           79.2          51.19         -19.72         -11.37         -129.8          -14.6          126.9          30.15          63.31
    0.3127              -16.51          21.21          79.18          51.18         -19.72         -11.36         -129.7          -14.6          126.9          30.16          63.31
    0.3388              -16.52          21.21          79.16          51.18         -19.71         -11.35         -129.7          -14.6          126.9          30.17          63.31
    0.3648              -16.53          21.22          79.13          51.17         -19.71         -11.34         -129.6         -14.59          126.9          30.18           63.3
    0.3909              -16.54          21.23          79.11          51.16         -19.71         -11.33         -129.5         -14.59          126.9           30.2           63.3
     0.417              -16.55          21.23          79.07          51.15          -19.7         -11.32         -129.5         -14.59          126.9          30.22           63.3
     0.443              -16.56          21.24          79.04          51.14          -19.7         -11.31         -129.4         -14.59          126.9          30.23           63.3
    0.4691              -16.57          21.25          79.01          51.13         -19.69         -11.29         -129.3         -14.59          126.9          30.25           63.3
    0.4951              -16.59          21.26          78.97          51.12         -19.69         -11.28         -129.2         -14.59          126.9          30.27           63.3
    0.5212               -16.6          21.27          78.92          51.11         -19.68         -11.26         -129.1         -14.58          126.9           30.3          63.29
    0.5473              -16.62          21.28          78.88           51.1         -19.68         -11.25         -129.0         -14.58          126.9          30.32          63.29
    0.5733              -16.64           21.3          78.82          51.08         -19.67         -11.23         -128.9         -14.58          126.9          30.35          63.29
    0.5994              -16.66          21.31          78.76          51.07         -19.66          -11.2         -128.7         -14.58          126.9          30.38          63.28
    0.6254              -16.68          21.33           78.7          51.05         -19.66         -11.18         -128.6         -14.57          126.9          30.42          63.28
    0.6515              -16.71          21.34          78.63          51.03         -19.65         -11.15         -128.4         -14.57          126.9          30.46          63.28
    0.6776              -16.74          21.36          78.55          51.01         -19.64         -11.13         -128.2         -14.57          126.8           30.5          63.27
    0.7036              -16.77          21.39          78.45          50.98         -19.63         -11.09         -128.0         -14.56          126.8          30.55          63.27
    0.7297              -16.81          21.41          78.35          50.95         -19.61         -11.05         -127.8         -14.56          126.8           30.6          63.26
    0.7557              -16.85          21.44          78.23          50.92          -19.6         -11.01         -127.5         -14.55          126.8          30.67          63.26
    0.7818               -16.9          21.47           78.1          50.88         -19.58         -10.96         -127.2         -14.55          126.8          30.74          63.25
    0.8079              -16.95          21.51          77.95          50.84         -19.56         -10.91         -126.8         -14.54          126.8          30.82          63.24
    0.8339              -17.01          21.55          77.77          50.79         -19.54         -10.84         -126.4         -14.53          126.8          30.91          63.23
      0.86              -17.09           21.6          77.57          50.73         -19.52         -10.77         -125.9         -14.52          126.8          31.02          63.22
     0.886              -17.17          21.66          77.32          50.66         -19.49         -10.68         -125.3         -14.51          126.8          31.15          63.21
    0.9121              -17.27          21.73          77.04          50.58         -19.45         -10.58         -124.7         -14.49          126.7          31.31           63.2
    0.9382              -17.39          21.81           76.7          50.49         -19.41         -10.45         -123.9         -14.48          126.7          31.49          63.18
    0.9642              -17.53          21.91           76.3          50.38         -19.36         -10.31         -122.9         -14.46          126.7           31.7          63.16
    0.9903              -17.71          22.03          75.81          50.24          -19.3         -10.13         -121.8         -14.43          126.6          31.96          63.13
     1.016              -17.92          22.18          75.21          50.07         -19.23         -9.909         -120.3         -14.41          126.6          32.28           63.1
     1.042              -18.18          22.36          74.48          49.86         -19.13          -9.64         -118.6         -14.37          126.5          32.68          63.06
     1.068              -18.51          22.59          73.56          49.61         -19.02         -9.305         -116.4         -14.33          126.5          33.17          63.02
     1.095              -18.92          22.87           72.4          49.28         -18.88         -8.883         -113.7         -14.27          126.4          33.79          62.96
     1.121              -19.44          23.23          70.93          48.87          -18.7         -8.346         -110.2          -14.2          126.3          34.58          62.88
     1.147              -20.11          23.69          69.05          48.34         -18.46         -7.658         -105.8         -14.11          126.1          35.59          62.78
     1.173              -20.97          24.28          66.63          47.66         -18.17         -6.776         -100.0         -13.99          126.0          36.88          62.66
     1.199              -22.07          25.04          63.54           46.8         -17.78          -5.65         -92.75         -13.84          125.7          38.53           62.5
     1.225              -23.44          25.99          59.66          45.71         -17.31         -4.233         -83.57         -13.66          125.4          40.61           62.3
     1.251              -25.12          27.15          54.93          44.38         -16.72         -2.507         -72.38         -13.43          125.1          43.15          62.06
     1.277              -27.07           28.5          49.45          42.84         -16.04        -0.5057         -59.42         -13.17          124.7          46.08          61.78
     1.303              -29.18          29.95          43.51          41.17         -15.31          1.661         -45.39         -12.88          124.2          49.26          61.47
     1.329              -31.29          31.41          37.57          39.51         -14.58          3.828         -31.35         -12.59          123.8          52.44          61.17
     1.355              -33.23          32.75          32.09          37.97          -13.9          5.829         -18.39         -12.33          123.4          55.38          60.88
     1.381              -34.91          33.91          27.36          36.64         -13.32          7.555         -7.202          -12.1          123.0          57.91          60.64
     1.407              -36.29          34.86          23.48          35.55         -12.84          8.972          1.975         -11.91          122.7          59.99          60.44
     1.433              -37.39          35.62          20.39          34.69         -12.46           10.1          9.274         -11.77          122.5          61.65          60.28
     1.459              -38.25          36.21          17.97          34.01         -12.16          10.98          14.99         -11.65          122.3          62.94          60.16
     1.485              -38.92          36.67          16.09          33.48         -11.93          11.67          19.44         -11.56          122.2          63.95          60.06
     1.511              -39.44          37.03          14.62          33.07         -11.74           12.2          22.92         -11.49          122.0          64.74          59.98
     1.538              -39.85          37.32          13.46          32.74          -11.6          12.63          25.66         -11.43          122.0          65.36          59.93
     1.564              -40.18          37.54          12.54          32.49         -11.49          12.96          27.83         -11.39          121.9          65.85          59.88
      1.59              -40.44          37.72           11.8          32.28          -11.4          13.23          29.57         -11.35          121.8          66.24          59.84
     1.616              -40.65          37.87          11.21          32.11         -11.32          13.45          30.98         -11.32          121.8          66.56          59.81
     1.642              -40.82          37.99          10.72          31.97         -11.26          13.63          32.14          -11.3          121.8          66.83          59.78
     1.668              -40.97          38.09          10.31          31.86         -11.21          13.78          33.09         -11.28          121.7          67.04          59.76
